<svg width="22" height="22" viewBox="0 0 22 22" fill="none" xmlns="http://www.w3.org/2000/svg">
<path d="M10.6756 2.08312C13.4656 2.08312 13.7956 2.09312 14.8956 2.14312C15.9156 2.19312 16.4656 2.36312 16.8356 2.50312C17.3256 2.69312 17.6656 2.92312 18.0356 3.28312C18.4056 3.65312 18.6256 3.99312 18.8156 4.48312C18.9556 4.85312 19.1256 5.40312 19.1756 6.42312C19.2256 7.52312 19.2356 7.85313 19.2356 10.6431C19.2356 13.4331 19.2256 13.7631 19.1756 14.8631C19.1256 15.8831 18.9556 16.4331 18.8156 16.8031C18.6256 17.2931 18.3956 17.6331 18.0356 18.0031C17.6756 18.3631 17.3256 18.5931 16.8356 18.7831C16.4656 18.9231 15.9156 19.0931 14.8956 19.1431C13.7956 19.1931 13.4656 19.2031 10.6756 19.2031C7.88561 19.2031 7.55561 19.1931 6.45561 19.1431C5.43561 19.0931 4.88561 18.9231 4.51561 18.7831C4.02561 18.5931 3.68561 18.3631 3.31561 18.0031C2.94561 17.6331 2.72561 17.2931 2.53561 16.8031C2.39561 16.4331 2.22561 15.8831 2.17561 14.8631C2.12561 13.7631 2.1156 13.4331 2.1156 10.6431C2.1156 7.85313 2.12561 7.52312 2.17561 6.42312C2.22561 5.40312 2.39561 4.85312 2.53561 4.48312C2.72561 3.99312 2.95561 3.65312 3.31561 3.28312C3.68561 2.91313 4.02561 2.69312 4.51561 2.50312C4.88561 2.36312 5.43561 2.19312 6.45561 2.14312C7.56561 2.09312 7.89561 2.08312 10.6756 2.08312ZM10.6756 0.203125C7.84561 0.203125 7.48561 0.213124 6.37561 0.263124C5.26561 0.313124 4.50561 0.493124 3.84561 0.753124C3.15561 1.02312 2.57561 1.37313 1.99561 1.95312C1.41561 2.53312 1.05561 3.11312 0.795609 3.80312C0.535609 4.46312 0.365603 5.22312 0.305603 6.33312C0.255603 7.44312 0.245605 7.80313 0.245605 10.6331C0.245605 13.4631 0.255603 13.8231 0.305603 14.9331C0.355603 16.0431 0.535609 16.8031 0.795609 17.4631C1.06561 18.1531 1.41561 18.7331 1.99561 19.3131C2.57561 19.8931 3.15561 20.2531 3.84561 20.5131C4.50561 20.7731 5.26561 20.9431 6.37561 21.0031C7.48561 21.0531 7.84561 21.0631 10.6756 21.0631C13.5056 21.0631 13.8656 21.0531 14.9756 21.0031C16.0856 20.9531 16.8456 20.7731 17.5056 20.5131C18.1956 20.2431 18.7756 19.8931 19.3556 19.3131C19.9356 18.7331 20.2956 18.1531 20.5556 17.4631C20.8156 16.8031 20.9856 16.0431 21.0456 14.9331C21.0956 13.8231 21.1056 13.4631 21.1056 10.6331C21.1056 7.80313 21.0956 7.44312 21.0456 6.33312C20.9956 5.22312 20.8156 4.46312 20.5556 3.80312C20.2856 3.11312 19.9356 2.53312 19.3556 1.95312C18.7756 1.37313 18.1956 1.01312 17.5056 0.753124C16.8456 0.493124 16.0856 0.323124 14.9756 0.263124C13.8656 0.213124 13.5156 0.203125 10.6756 0.203125Z" fill="white"/>
<path d="M10.6759 5.27319C7.71592 5.27319 5.31592 7.67319 5.31592 10.6332C5.31592 13.5932 7.71592 15.9932 10.6759 15.9932C13.6359 15.9932 16.0359 13.5932 16.0359 10.6332C16.0359 7.67319 13.6359 5.27319 10.6759 5.27319ZM10.6759 14.1132C8.75592 14.1132 7.19591 12.5532 7.19591 10.6332C7.19591 8.71319 8.75592 7.15319 10.6759 7.15319C12.5959 7.15319 14.1559 8.71319 14.1559 10.6332C14.1559 12.5532 12.5959 14.1132 10.6759 14.1132Z" fill="white"/>
<path d="M17.5063 5.06323C17.5063 5.75323 16.9463 6.31323 16.2563 6.31323C15.5663 6.31323 15.0063 5.75323 15.0063 5.06323C15.0063 4.37323 15.5663 3.81323 16.2563 3.81323C16.9463 3.81323 17.5063 4.37323 17.5063 5.06323Z" fill="white"/>
</svg>
