<svg width="39" height="38" viewBox="0 0 39 38" fill="none" xmlns="http://www.w3.org/2000/svg">
<path d="M30.6225 1.06709C29.3375 0.751247 24.9899 0 19.4589 0C13.9256 0 9.57807 0.751247 8.29298 1.06709C7.00558 1.38293 1.6757 2.30112 0.568582 9.77974C0.568582 9.77974 0 12.9923 0 19C0 25.0077 0.568582 28.2203 0.568582 28.2203C1.6757 35.6989 7.00558 36.6193 8.29067 36.9329C9.57807 37.2488 13.9233 38 19.4566 38C24.9899 38 29.3351 37.2488 30.6225 36.9329C31.9099 36.6193 37.2398 35.6989 38.3446 28.2203C38.3446 28.2203 38.9132 25.0077 38.9132 19C38.9132 12.9923 38.3446 9.77974 38.3446 9.77974C37.2398 2.30112 31.9099 1.38293 30.6225 1.06709ZM31.2096 23.3924V26.5012V27.1126H30.5833H29.5709V30.6928V31.3042H28.9445H25.8058H25.1794V30.6928V27.1126H14.7577C11.1775 27.1126 8.26524 24.2723 8.26524 20.7777V7.59368V6.98231H8.89161H12.2338H12.8601V7.59368V20.4393C12.8601 21.8787 13.7823 22.7765 15.2639 22.781H25.1771V11.8214V11.2078H25.8035H28.9422H29.5686V11.8214V22.781H30.5809H31.2073V23.3924H31.2096Z" fill="black"/>
</svg>
