<svg width="24" height="23" viewBox="0 0 24 23" fill="none" xmlns="http://www.w3.org/2000/svg">
<path d="M11.1725 0.920427C11.4823 0.0211552 12.7543 0.0214895 13.0636 0.920923L15.1859 7.09163C15.3223 7.48811 15.6915 7.75742 16.1107 7.76617L22.6044 7.90164C23.5499 7.92137 23.9422 9.12099 23.1912 9.69563L18.004 13.6644C17.674 13.9169 17.5345 14.3473 17.6537 14.7454L19.5349 21.0278C19.8071 21.9369 18.7783 22.6785 18.0019 22.1327L12.6936 18.4018C12.3487 18.1593 11.8888 18.1593 11.5438 18.4016L6.23141 22.1329C5.4547 22.6785 4.42607 21.9364 4.69882 21.0273L6.5833 14.7459C6.70282 14.3475 6.56328 13.9168 6.23286 13.6642L1.04256 9.6958C0.291178 9.12132 0.683452 7.92134 1.62909 7.90161L8.12162 7.76616C8.54061 7.75742 8.90971 7.48834 9.04622 7.09211L11.1725 0.920427Z" fill="black"/>
</svg>
