<svg width="21" height="17" viewBox="0 0 21 17" fill="none" xmlns="http://www.w3.org/2000/svg">
<path d="M0.415527 15.0031C2.25553 16.1831 4.44553 16.8731 6.79553 16.8731C14.5155 16.8731 18.8855 10.3531 18.6255 4.49307C19.4355 3.90307 20.1455 3.17307 20.7055 2.34307C19.9555 2.67307 19.1555 2.89307 18.3155 2.99307C19.1755 2.48307 19.8355 1.66307 20.1455 0.693067C19.3455 1.17307 18.4555 1.51307 17.5055 1.70307C16.7455 0.893067 15.6655 0.393066 14.4655 0.393066C11.7755 0.393066 9.80553 2.90307 10.4155 5.50307C6.95553 5.33307 3.89553 3.67307 1.83553 1.15307C0.745527 3.02307 1.26553 5.47307 3.12553 6.71307C2.44553 6.69307 1.80553 6.50307 1.23553 6.19307C1.19553 8.12307 2.57553 9.92307 4.57553 10.3231C3.98553 10.4831 3.34553 10.5231 2.69553 10.3931C3.22553 12.0431 4.76553 13.2531 6.58553 13.2831C4.82553 14.6531 2.62553 15.2631 0.415527 15.0031Z" fill="white"/>
</svg>
