<svg width="32" height="23" viewBox="0 0 32 23" fill="none" xmlns="http://www.w3.org/2000/svg">
<path d="M30.3957 4.25283C30.0457 2.93283 29.0157 1.89283 27.7057 1.54283C25.3257 0.902831 15.8057 0.902832 15.8057 0.902832C15.8057 0.902832 6.27568 0.902831 3.90568 1.54283C2.59568 1.89283 1.56568 2.93283 1.21568 4.25283C0.575683 6.64283 0.575684 11.6328 0.575684 11.6328C0.575684 11.6328 0.575683 16.6228 1.21568 19.0128C1.56568 20.3328 2.59568 21.3728 3.90568 21.7228C6.28568 22.3628 15.8057 22.3628 15.8057 22.3628C15.8057 22.3628 25.3357 22.3628 27.7057 21.7228C29.0157 21.3728 30.0457 20.3328 30.3957 19.0128C31.0357 16.6228 31.0357 11.6328 31.0357 11.6328C31.0357 11.6328 31.0357 6.64283 30.3957 4.25283ZM12.6957 16.1628V7.10283L20.6557 11.6328L12.6957 16.1628Z" fill="white"/>
</svg>
